<?xml version="1.0" standalone="no"?>
<!DOCTYPE svg PUBLIC "-//W3C//DTD SVG 20010904//EN"
 "http://www.w3.org/TR/2001/REC-SVG-20010904/DTD/svg10.dtd">
<svg version="1.0" xmlns="http://www.w3.org/2000/svg"
 width="268.000000pt" height="268.000000pt" viewBox="0 0 268.000000 268.000000"
 preserveAspectRatio="xMidYMid meet">
<metadata>
Created by potrace 1.11, written by Peter Selinger 2001-2013
</metadata>
<g transform="translate(0.000000,268.000000) scale(0.100000,-0.100000)"
fill="#000000" stroke="none">
<path d="M528 2645 c-69 -79 -528 -678 -528 -688 0 -6 40 -69 88 -139 48 -70
125 -183 172 -252 47 -70 181 -267 298 -439 117 -171 264 -388 328 -482 64
-93 182 -269 264 -390 174 -257 173 -257 198 -247 10 4 75 90 144 192 69 102
171 253 227 335 57 83 145 213 197 290 52 77 141 208 197 290 57 83 165 242
242 355 76 113 179 264 228 335 50 72 92 137 94 147 3 9 -20 48 -57 95 -34 43
-72 92 -85 108 -13 17 -61 78 -107 137 -164 210 -273 351 -280 361 -5 8 -247
11 -805 11 -786 1 -798 1 -815 -19z m704 -95 c-126 -170 -398 -508 -403 -502
-4 4 -37 86 -73 182 -37 96 -71 184 -76 195 -27 60 -59 148 -55 154 2 4 146 7
319 7 l315 0 -27 -36z m828 31 c0 -9 -203 -526 -209 -533 -5 -6 -348 422 -418
522 -11 15 11 16 308 16 175 0 319 -2 319 -5z m-510 -287 c113 -145 210 -272
217 -282 11 -16 -13 -17 -426 -17 -291 0 -437 3 -433 10 7 12 93 125 107 141
6 6 80 101 165 212 85 110 157 201 160 201 3 0 97 -119 210 -265z m-950 121
c24 -60 49 -123 56 -140 18 -43 91 -236 98 -260 6 -20 3 -20 -307 -17 -171 2
-314 5 -315 7 -2 2 90 123 204 270 114 146 210 262 214 258 4 -5 26 -57 50
-118z m1582 68 c24 -32 116 -150 204 -263 88 -113 163 -210 166 -215 7 -11
-616 -15 -626 -4 -3 3 39 121 94 262 55 141 100 261 100 267 0 23 21 7 62 -47z
m-1386 -583 c1 -8 41 -157 89 -330 47 -173 98 -358 112 -410 14 -52 34 -126
45 -165 10 -38 27 -101 38 -140 35 -129 108 -399 134 -494 14 -52 22 -90 17
-85 -5 5 -59 83 -120 174 -190 280 -315 464 -506 745 -375 552 -485 715 -485
719 0 3 151 4 337 3 290 -2 336 -4 339 -17z m1004 -13 c-7 -31 -207 -769 -334
-1232 -35 -126 -76 -278 -92 -337 -16 -60 -31 -108 -34 -108 -3 0 -25 73 -49
163 -24 89 -102 376 -174 637 -131 480 -170 625 -211 780 -13 47 -26 95 -30
107 l-7 22 469 1 470 0 -8 -33z m760 27 c0 -6 -1096 -1621 -1112 -1639 -6 -6
-7 -5 -4 5 3 8 64 233 136 500 170 626 277 1022 296 1087 l14 52 335 0 c184 1
335 -2 335 -5z"/>
</g>
</svg>
